<svg width="295" height="48" viewBox="0 0 295 48" fill="none" xmlns="http://www.w3.org/2000/svg">
<g clip-path="url(#clip0_8_8)">
<path fill-rule="evenodd" clip-rule="evenodd" d="M33.5186 46.0358C30.5984 47.3008 27.3783 48.0022 23.9957 48.0022C17.8543 48.0022 12.2482 45.6903 8.00171 41.8902L17.3921 25.3052L24.5522 22.4204L23.5722 25.7298L33.3652 21.8809L33.5186 46.0358Z" fill="#6E3F88"/>
<path fill-rule="evenodd" clip-rule="evenodd" d="M28.3489 0.396021C30.1337 0.723433 31.8498 1.24859 33.4736 1.94805L33.3646 19.9L27.19 22.165L27.8983 19.4726L18.4822 22.6947L28.3489 0.396021Z" fill="#6E3F88"/>
<path fill-rule="evenodd" clip-rule="evenodd" d="M34.6062 2.4724C42.5375 6.39114 47.9975 14.5646 47.9975 24.0032C47.9975 33.2131 42.7985 41.2184 35.178 45.242L34.6062 2.4724Z" fill="black"/>
<path fill-rule="evenodd" clip-rule="evenodd" d="M6.76668 40.6995C2.57784 36.3782 -0.00219727 30.4882 -0.00219727 24.0004C-0.00219727 10.7543 10.7521 0 23.9982 0C24.8801 0 25.7511 0.0474444 26.6084 0.140385L6.76668 40.6995Z" fill="black"/>
</g>
<path d="M64.216 32.5L71.776 15.7H74.848L82.432 32.5H79.168L72.664 17.356H73.912L67.432 32.5H64.216ZM67.696 28.612L68.536 26.164H77.608L78.448 28.612H67.696ZM85.0323 32.5V15.7H88.1043V27.628L97.1283 15.7H100.032V32.5H96.9603V20.596L87.9363 32.5H85.0323ZM92.4963 14.572C91.0563 14.572 89.9683 14.268 89.2323 13.66C88.5123 13.052 88.1443 12.196 88.1283 11.092H90.3123C90.3283 11.684 90.5203 12.14 90.8883 12.46C91.2723 12.78 91.8083 12.94 92.4963 12.94C93.1843 12.94 93.7203 12.78 94.1043 12.46C94.5043 12.14 94.7123 11.684 94.7283 11.092H96.8883C96.8723 12.196 96.4963 13.052 95.7603 13.66C95.0243 14.268 93.9363 14.572 92.4963 14.572ZM114.183 25.204V22.732H122.847V25.204H114.183ZM116.367 15.46C117.599 15.46 118.735 15.676 119.775 16.108C120.815 16.524 121.719 17.124 122.487 17.908C123.271 18.676 123.871 19.588 124.287 20.644C124.719 21.7 124.935 22.852 124.935 24.1C124.935 25.348 124.719 26.5 124.287 27.556C123.871 28.612 123.271 29.532 122.487 30.316C121.719 31.084 120.815 31.684 119.775 32.116C118.735 32.532 117.599 32.74 116.367 32.74C114.943 32.74 113.647 32.5 112.479 32.02C111.327 31.54 110.367 30.844 109.599 29.932L111.567 28.012C112.191 28.684 112.887 29.188 113.655 29.524C114.439 29.844 115.287 30.004 116.199 30.004C116.999 30.004 117.743 29.86 118.431 29.572C119.119 29.268 119.711 28.86 120.207 28.348C120.703 27.82 121.087 27.196 121.359 26.476C121.631 25.756 121.767 24.964 121.767 24.1C121.767 23.236 121.631 22.444 121.359 21.724C121.087 21.004 120.703 20.388 120.207 19.876C119.711 19.348 119.119 18.94 118.431 18.652C117.743 18.348 116.999 18.196 116.199 18.196C115.287 18.196 114.439 18.364 113.655 18.7C112.887 19.02 112.191 19.516 111.567 20.188L109.599 18.268C110.367 17.356 111.327 16.66 112.479 16.18C113.647 15.7 114.943 15.46 116.367 15.46ZM127.634 32.74C127.362 32.74 127.09 32.716 126.818 32.668C126.546 32.62 126.25 32.564 125.93 32.5L126.146 29.788C126.37 29.852 126.61 29.884 126.866 29.884C127.538 29.884 128.074 29.612 128.474 29.068C128.874 28.508 129.162 27.692 129.338 26.62C129.514 25.548 129.634 24.228 129.698 22.66L129.938 15.7H142.298V32.5H139.226V17.572L139.946 18.34H131.954L132.626 17.548L132.458 22.54C132.41 24.204 132.298 25.668 132.122 26.932C131.946 28.196 131.674 29.26 131.306 30.124C130.954 30.972 130.482 31.62 129.89 32.068C129.298 32.516 128.546 32.74 127.634 32.74ZM149.904 22.684H158.256V25.252H149.904V22.684ZM150.144 29.884H159.624V32.5H147.024V15.7H159.288V18.316H150.144V29.884ZM174.214 32.5L168.526 24.316L171.046 22.756L177.742 32.5H174.214ZM163.102 32.5V15.7H166.174V32.5H163.102ZM165.238 25.42V22.732H170.902V25.42H165.238ZM171.334 24.46L168.478 24.076L174.214 15.7H177.526L171.334 24.46ZM183.224 32.5V17.572L183.968 18.34H177.68V15.7H191.888V18.34H185.6L186.32 17.572V32.5H183.224ZM194.579 32.5V15.7H201.491C202.979 15.7 204.251 15.94 205.307 16.42C206.379 16.9 207.203 17.588 207.779 18.484C208.355 19.38 208.643 20.444 208.643 21.676C208.643 22.908 208.355 23.972 207.779 24.868C207.203 25.764 206.379 26.452 205.307 26.932C204.251 27.412 202.979 27.652 201.491 27.652H196.307L197.699 26.188V32.5H194.579ZM197.699 26.524L196.307 25.012H201.347C202.723 25.012 203.755 24.724 204.443 24.148C205.147 23.556 205.499 22.732 205.499 21.676C205.499 20.604 205.147 19.78 204.443 19.204C203.755 18.628 202.723 18.34 201.347 18.34H196.307L197.699 16.804V26.524ZM219.629 32.74C218.317 32.74 217.109 32.524 216.005 32.092C214.901 31.66 213.941 31.06 213.125 30.292C212.309 29.508 211.677 28.596 211.229 27.556C210.781 26.5 210.557 25.348 210.557 24.1C210.557 22.852 210.781 21.708 211.229 20.668C211.677 19.612 212.309 18.7 213.125 17.932C213.941 17.148 214.901 16.54 216.005 16.108C217.109 15.676 218.309 15.46 219.605 15.46C220.917 15.46 222.117 15.676 223.205 16.108C224.309 16.54 225.269 17.148 226.085 17.932C226.901 18.7 227.533 19.612 227.981 20.668C228.429 21.708 228.653 22.852 228.653 24.1C228.653 25.348 228.429 26.5 227.981 27.556C227.533 28.612 226.901 29.524 226.085 30.292C225.269 31.06 224.309 31.66 223.205 32.092C222.117 32.524 220.925 32.74 219.629 32.74ZM219.605 30.004C220.453 30.004 221.237 29.86 221.957 29.572C222.677 29.284 223.301 28.876 223.829 28.348C224.357 27.804 224.765 27.18 225.053 26.476C225.357 25.756 225.509 24.964 225.509 24.1C225.509 23.236 225.357 22.452 225.053 21.748C224.765 21.028 224.357 20.404 223.829 19.876C223.301 19.332 222.677 18.916 221.957 18.628C221.237 18.34 220.453 18.196 219.605 18.196C218.757 18.196 217.973 18.34 217.253 18.628C216.549 18.916 215.925 19.332 215.381 19.876C214.853 20.404 214.437 21.028 214.133 21.748C213.845 22.452 213.701 23.236 213.701 24.1C213.701 24.948 213.845 25.732 214.133 26.452C214.437 27.172 214.853 27.804 215.381 28.348C215.909 28.876 216.533 29.284 217.253 29.572C217.973 29.86 218.757 30.004 219.605 30.004ZM238.423 32.74C238.151 32.74 237.879 32.716 237.607 32.668C237.335 32.62 237.039 32.564 236.719 32.5L236.935 29.788C237.159 29.852 237.399 29.884 237.655 29.884C238.327 29.884 238.863 29.612 239.263 29.068C239.663 28.508 239.951 27.692 240.127 26.62C240.303 25.548 240.423 24.228 240.487 22.66L240.727 15.7H253.087V32.5H250.015V17.572L250.735 18.34H242.743L243.415 17.548L243.247 22.54C243.199 24.204 243.087 25.668 242.911 26.932C242.735 28.196 242.463 29.26 242.095 30.124C241.743 30.972 241.271 31.62 240.679 32.068C240.087 32.516 239.335 32.74 238.423 32.74ZM257.837 32.5V15.7H260.909V27.628L269.933 15.7H272.837V32.5H269.765V20.596L260.741 32.5H257.837ZM289.355 15.7H292.475V32.5H289.355V15.7ZM280.667 32.5H277.547V15.7H280.667V32.5ZM289.595 25.3H280.403V22.636H289.595V25.3Z" fill="#111111"/>
<defs>
<clipPath id="clip0_8_8">
<rect width="48" height="48" fill="white"/>
</clipPath>
</defs>
</svg>
